<svg width="777" height="868" viewBox="0 0 777 868" fill="none" xmlns="http://www.w3.org/2000/svg">
<path fill-rule="evenodd" clip-rule="evenodd" d="M374.852 729.857L488.83 719.357L472.33 748.36L504.44 766.47C505.69 767.18 506.47 768.5 506.48 769.93C506.49 772.14 504.71 773.94 502.5 773.96C465.851 774.18 438.872 774.2 421.565 774.04C401.97 773.85 385.784 773.48 373.005 772.93L374.852 729.857ZM54.3251 628.857L84.3251 700.857L46.522 714.751L7.11909 763.81C6.25409 764.89 4.89404 765.45 3.52204 765.28C1.32904 765.02 -0.234936 763.03 0.0290638 760.83L13.9811 644.966L54.3251 628.857Z" fill="#1E3A8A"/>
<path fill-rule="evenodd" clip-rule="evenodd" d="M490.43 446.357L600.05 514.249C625.33 529.907 633.59 562.823 618.69 588.559L533.43 735.857L361.325 735.82L527.93 567.357L394.931 517.857L275.825 593.142L107.431 758.36L40.825 598.547L201.931 538.857L291.931 482.857L331.431 435.857L490.43 446.357Z" fill="white"/>
<path d="M527.94 567.811L363.016 734.571L532.89 734.607L617.93 587.683C632.63 562.298 624.48 529.831 599.55 514.387L490.09 446.593L331.655 436.131L292.323 482.931L202.222 538.994L202.086 539.061L41.713 598.479L107.591 756.55L275.195 592.107L275.319 592.008L394.739 516.525L527.58 565.965L531.24 561.389C531.5 561.065 531.97 561.013 532.29 561.272C532.62 561.53 532.67 562.002 532.41 562.326L529.06 566.516L529.17 566.559L529.02 566.718L532.22 568.721C532.57 568.941 532.68 569.404 532.46 569.755C532.24 570.106 531.78 570.213 531.43 569.993L527.94 567.811ZM291.328 481.784L291.251 481.875L291.429 481.721L291.328 481.784ZM291.328 481.784L330.996 434.584L490.56 445.121L600.34 513.111C625.96 528.982 634.33 562.347 619.23 588.435L533.76 736.107L359.424 736.07L526.48 567.155L394.912 518.19L276.188 593.234L107.059 759.17L39.728 597.615L201.494 537.68L291.328 481.784ZM201.494 537.68L201.429 537.721L201.565 537.654L201.494 537.68Z" fill="#1E3A8A"/>
<path fill-rule="evenodd" clip-rule="evenodd" d="M384.825 289.857L459.914 290.729L533.26 297.763L691.83 307.857L651.33 123.857L717.83 124.357C755.83 265.213 774.91 337.821 775.05 342.18C775.9 367.571 756.01 388.844 730.62 389.694L509.83 373.357L489.33 442.357L389.825 437.857L384.825 289.857Z" fill="white"/>
<path d="M490.37 443.157L384.073 434.046L384.578 289.099L385.334 289.108L460.486 289.983L533.81 297.015L691.38 307.046L650.89 123.101L718.9 123.612L719.05 124.162C757.18 265.474 776.15 337.698 776.3 342.155C777.17 367.96 756.95 389.58 731.06 390.443L510.87 374.15L490.37 443.157ZM385.578 432.669L489.28 441.558L509.78 372.565L510.38 372.61L731.09 388.945C756.07 388.108 775.64 367.182 774.8 342.205C774.66 337.95 755.53 265.144 717.75 125.103L652.76 124.615L693.27 308.669L692.28 308.606L533.69 298.51L460.405 291.479L386.073 290.616L385.578 432.669Z" fill="#1E3A8A"/>
<path fill-rule="evenodd" clip-rule="evenodd" d="M441.825 444.357L490.48 445.669L493.08 435.169L441.825 433.357V444.357Z" fill="#1E3A8A"/>
<path fill-rule="evenodd" clip-rule="evenodd" d="M191.325 205.857L121.008 441.442C116.428 456.789 124.71 473.027 139.823 478.33L169.825 488.857L321.825 387.357L321.931 289.857L251.825 317.357L290.825 205.857L263.825 140.857L235.325 154.857L191.325 205.857Z" fill="white"/>
<path d="M292.277 205.107H191.161L120.684 441.227C115.989 456.958 124.478 473.603 139.969 479.038L170.325 489.689L322.97 387.759L323.076 288.757L253.468 316.062L292.277 205.107ZM192.279 206.607H290.163L250.973 318.652L321.574 290.958L321.471 386.956L170.115 488.026L140.466 477.622C125.731 472.452 117.656 456.62 122.122 441.656L192.279 206.607Z" fill="#1E3A8A"/>
<path fill-rule="evenodd" clip-rule="evenodd" d="M293.825 231.858L288.38 255.178L176.825 226.858L181.873 202.858L293.825 231.858Z" fill="white"/>
<path d="M294.521 231.261L288.473 255.518L175.919 227.455L181.967 203.198L294.521 231.261ZM292.703 232.353L183.06 205.016L177.737 226.363L287.381 253.7L292.703 232.353Z" fill="#1E3A8A"/>
<path d="M188.889 217.806C188.054 221.155 190.092 224.547 193.441 225.382C196.79 226.217 200.182 224.179 201.017 220.83C201.852 217.481 199.814 214.089 196.465 213.254C193.116 212.419 189.724 214.457 188.889 217.806ZM190.344 218.169C190.979 215.623 193.557 214.074 196.102 214.709C198.647 215.344 200.196 217.922 199.562 220.467C198.927 223.013 196.349 224.562 193.804 223.927C191.258 223.292 189.709 220.714 190.344 218.169Z" fill="#1E3A8A"/>
<path d="M438.85 424.811L418.898 423.415C414.491 423.107 410.668 426.43 410.36 430.838L409.383 444.804C409.075 449.211 412.398 453.034 416.806 453.342L436.757 454.738C441.165 455.046 444.987 451.723 445.296 447.315L446.272 433.349C446.58 428.942 443.257 425.119 438.85 424.811Z" fill="white"/>
<path d="M418.896 423.197L438.847 424.592C443.255 424.9 446.578 428.723 446.27 433.13L445.293 447.096C444.985 451.504 441.162 454.827 436.755 454.519L416.803 453.124C412.396 452.815 409.073 448.993 409.381 444.585L410.357 430.619C410.666 426.212 414.489 422.889 418.896 423.197ZM418.791 424.693C415.21 424.443 412.104 427.143 411.854 430.724L410.877 444.69C410.627 448.271 413.327 451.377 416.908 451.627L436.859 453.022C440.44 453.273 443.546 450.573 443.797 446.992L444.773 433.026C445.024 429.445 442.324 426.339 438.743 426.088L418.791 424.693Z" fill="#1E3A8A"/>
<path fill-rule="evenodd" clip-rule="evenodd" d="M319.892 622.527L320.841 208.857H321.786V206.795H148.825V153.377L320.93 0.856934H384.808V153.377H433.825V206.795H384.808V208.857H384.825V651.857H384.808V773.38H433.825V826.79H384.808V866.86H321.786V826.79H148.825V773.38L319.892 622.527ZM215.93 773.36H320.93L320.43 685.857L215.93 773.36ZM215.825 153.857H320.825L320.43 65.8569L215.825 153.857Z" fill="#EEF5FF"/>
<path d="M319.538 622.188L320.486 208.856C320.487 208.442 320.822 208.107 321.236 208.107H321.431V207.545H149.22C148.806 207.545 148.47 207.209 148.47 206.795V153.377C148.47 153.163 148.562 152.958 148.723 152.816L320.828 0.295929C320.965 0.174929 321.142 0.106934 321.325 0.106934H385.203C385.617 0.106934 385.953 0.442934 385.953 0.856934V152.627H434.22C434.634 152.627 434.97 152.963 434.97 153.377V206.795C434.97 207.209 434.634 207.545 434.22 207.545H385.953V208.697C385.964 208.749 385.97 208.802 385.97 208.857V651.857C385.97 651.912 385.964 651.966 385.953 652.018V772.63H434.22C434.634 772.63 434.97 772.96 434.97 773.38V826.79C434.97 827.21 434.634 827.54 434.22 827.54H385.953V866.86C385.953 867.27 385.617 867.61 385.203 867.61H322.181C321.767 867.61 321.431 867.27 321.431 866.86V827.54H149.22C148.806 827.54 148.47 827.21 148.47 826.79V773.38C148.47 773.16 148.563 772.96 148.724 772.81L319.538 622.188ZM321.431 208.107H322.181L321.431 208.857V208.107ZM321.037 622.529C321.037 622.744 320.945 622.948 320.783 623.09L149.97 773.72V826.04H322.181C322.595 826.04 322.931 826.38 322.931 826.79V866.11H384.453V826.79C384.453 826.38 384.789 826.04 385.203 826.04H433.47V774.13H385.203C384.789 774.13 384.453 773.79 384.453 773.38V651.857C384.453 651.802 384.459 651.749 384.47 651.697V209.018C384.459 208.966 384.453 208.912 384.453 208.857V206.795C384.453 206.38 384.789 206.045 385.203 206.045H433.47V154.127H385.203C384.789 154.127 384.453 153.792 384.453 153.377V1.60693H321.61L149.97 153.715V206.045H322.181C322.595 206.045 322.931 206.38 322.931 206.795V208.857C322.931 209.272 322.595 209.607 322.181 209.607H321.984L321.037 622.529ZM216.325 774.11C215.625 774.11 215.307 773.23 215.844 772.78L320.344 685.282C320.831 684.875 321.572 685.218 321.575 685.853L322.075 773.35C322.078 773.77 321.741 774.11 321.325 774.11H216.325ZM320.571 772.61L320.085 687.456L218.389 772.61H320.571ZM216.22 154.607C215.52 154.607 215.202 153.734 215.737 153.283L320.343 65.2839C320.829 64.8739 321.573 65.2179 321.575 65.8539L321.97 153.854C321.972 154.27 321.636 154.607 321.22 154.607H216.22ZM320.467 153.107L320.083 67.4619L218.277 153.107H320.467Z" fill="#1E3A8A"/>
<path d="M291.325 559.857C194.703 559.857 148.825 515.057 148.825 433.507C148.825 352.307 194.703 307.857 291.325 307.857C387.6 307.857 433.825 352.657 433.825 433.507C433.825 514.707 387.6 559.857 291.325 559.857ZM290.825 506.857C346.469 506.857 371.825 479.264 371.825 433.508C371.825 388.101 346.469 360.857 290.825 360.857C235.182 360.857 209.825 387.752 209.825 433.508C209.825 479.613 235.182 506.857 290.825 506.857Z" fill="#EEF5FF"/>
<path d="M291.72 560.607C196.415 560.607 148.47 517.047 148.47 433.507C148.47 350.363 196.374 307.107 291.72 307.107C386.704 307.107 434.97 350.7 434.97 433.507C434.97 516.71 386.664 560.607 291.72 560.607ZM291.72 559.107C385.866 559.107 433.47 515.848 433.47 433.507C433.47 351.564 385.908 308.607 291.72 308.607C197.171 308.607 149.97 351.228 149.97 433.507C149.97 516.185 197.213 559.107 291.72 559.107ZM291.22 507.607C236.896 507.607 209.47 481.668 209.47 433.508C209.47 385.745 236.862 360.107 291.22 360.107C345.443 360.107 372.97 385.962 372.97 433.508C372.97 481.451 345.411 507.607 291.22 507.607ZM291.22 506.107C344.6 506.107 371.47 480.605 371.47 433.508C371.47 386.813 344.635 361.607 291.22 361.607C237.669 361.607 210.97 386.597 210.97 433.508C210.97 480.82 237.706 506.107 291.22 506.107Z" fill="#1E3A8A"/>
<path d="M198.939 538.356C165.186 517.551 148.825 482.036 148.825 433.507C148.825 384.743 165.487 349.233 199.873 328.645L229.414 380.067C216.15 392.509 209.825 410.656 209.825 433.508C209.825 455.781 215.743 473.653 228.134 486.177L198.939 538.356ZM383.711 538.356L354.516 486.177C366.907 473.653 372.825 455.781 372.825 433.508C372.825 410.656 366.5 392.509 353.237 380.067L382.777 328.645C417.163 349.233 433.825 384.743 433.825 433.507C433.825 482.036 417.465 517.551 383.711 538.356Z" fill="#1E3A8A"/>
<path d="M193.463 439.556C192.633 445.795 187.291 450.608 180.825 450.608C174.359 450.608 169.018 445.795 168.187 439.556L167.356 440.388C167.063 440.681 166.588 440.681 166.295 440.388C166.002 440.095 166.002 439.62 166.295 439.327L168.825 436.797L171.356 439.327C171.648 439.62 171.648 440.095 171.356 440.388C171.063 440.681 170.588 440.681 170.295 440.388L169.75 439.843C170.645 444.87 174.878 448.741 180.075 449.083V427.548C179.915 427.523 179.755 427.489 179.596 427.446C177.062 426.767 175.558 424.162 176.237 421.628C176.916 419.094 179.521 417.591 182.055 418.269C184.589 418.948 186.092 421.553 185.413 424.087C184.913 425.954 183.368 427.262 181.575 427.549V449.083C186.772 448.741 191.006 444.87 191.901 439.843L191.356 440.388C191.063 440.681 190.588 440.681 190.295 440.388C190.002 440.095 190.002 439.62 190.295 439.327L192.825 436.797L195.356 439.327C195.648 439.62 195.648 440.095 195.356 440.388C195.063 440.681 194.588 440.681 194.295 440.388L193.463 439.556ZM179.984 425.997C181.718 426.461 183.5 425.433 183.964 423.699C184.429 421.965 183.4 420.183 181.666 419.718C179.933 419.254 178.15 420.283 177.686 422.016C177.221 423.75 178.25 425.532 179.984 425.997Z" fill="white"/>
<path d="M402.575 449.083V427.548C402.735 427.523 402.895 427.489 403.055 427.446C405.589 426.767 407.092 424.162 406.413 421.628C405.734 419.094 403.13 417.591 400.596 418.269C398.062 418.948 396.558 421.553 397.237 424.087C397.737 425.954 399.283 427.262 401.075 427.549V449.083C395.878 448.741 391.645 444.87 390.75 439.843L391.295 440.388C391.588 440.681 392.063 440.681 392.356 440.388C392.648 440.095 392.648 439.62 392.356 439.327L389.825 436.797L387.295 439.327C387.002 439.62 387.002 440.095 387.295 440.388C387.588 440.681 388.063 440.681 388.356 440.388L389.187 439.556C390.018 445.795 395.359 450.608 401.825 450.608C408.291 450.608 413.633 445.795 414.463 439.556L415.295 440.388C415.588 440.681 416.063 440.681 416.356 440.388C416.648 440.095 416.648 439.62 416.356 439.327L413.825 436.797L411.295 439.327C411.002 439.62 411.002 440.095 411.295 440.388C411.588 440.681 412.063 440.681 412.356 440.388L412.901 439.843C412.006 444.87 407.772 448.741 402.575 449.083ZM402.666 425.997C400.933 426.461 399.15 425.433 398.686 423.699C398.221 421.965 399.25 420.183 400.984 419.718C402.718 419.254 404.5 420.283 404.964 422.016C405.429 423.75 404.4 425.532 402.666 425.997Z" fill="white"/>
<path fill-rule="evenodd" clip-rule="evenodd" d="M595.83 140.857L529.4 153.592C536.66 161.614 545.93 165.829 557.22 166.237C568.51 166.645 583.95 165.342 603.54 162.327L595.83 140.857Z" fill="white"/>
<path d="M579.52 142.012L579.15 140.558L527.82 153.579L528.66 154.503C536.05 162.676 545.52 166.979 557.01 167.394C568.35 167.804 583.84 166.497 603.47 163.476L603.24 161.993C583.69 165.001 568.3 166.301 557.06 165.895C546.41 165.51 537.61 161.688 530.63 154.415L579.52 142.012Z" fill="#1E3A8A"/>
<mask id="mask0_165_221" style="mask-type:alpha" maskUnits="userSpaceOnUse" x="401" y="123" width="140" height="167">
<path d="M460.325 289.857L470.33 249.857L489.1 252.482C504.98 254.701 520.04 244.834 524.35 229.397L539.3 175.885C545.39 154.075 532.64 131.458 510.83 125.368C507.24 124.366 503.53 123.857 499.81 123.857H466.162C453.886 123.857 443.155 132.138 440.043 144.013L401.825 289.857H460.325Z" fill="white"/>
</mask>
<g mask="url(#mask0_165_221)">
<path d="M460.325 289.857L470.33 249.857L489.1 252.482C504.98 254.701 520.04 244.834 524.35 229.397L539.3 175.885C545.39 154.075 532.64 131.458 510.83 125.368C507.24 124.366 503.53 123.857 499.81 123.857H466.162C453.886 123.857 443.155 132.138 440.043 144.013L401.825 289.857H460.325Z" fill="white"/>
<mask id="mask1_165_221" style="mask-type:alpha" maskUnits="userSpaceOnUse" x="401" y="123" width="140" height="167">
<path d="M460.325 289.857L470.33 249.857L489.1 252.482C504.98 254.701 520.04 244.834 524.35 229.397L539.3 175.885C545.39 154.075 532.64 131.458 510.83 125.368C507.24 124.366 503.53 123.857 499.81 123.857H466.162C453.886 123.857 443.155 132.138 440.043 144.013L401.825 289.857H460.325Z" fill="white"/>
</mask>
<g mask="url(#mask1_165_221)">
<path d="M460.325 289.857L470.33 249.857L489.1 252.482C504.98 254.701 520.04 244.834 524.35 229.397L539.3 175.885C545.39 154.075 532.64 131.458 510.83 125.368C507.24 124.366 503.53 123.857 499.81 123.857H466.162C453.886 123.857 443.155 132.138 440.043 144.013L401.825 289.857H460.325Z" fill="white"/>
<path fill-rule="evenodd" clip-rule="evenodd" d="M532.69 183.498L537.83 182.857L537.15 193.223C537.06 194.757 535.73 195.92 534.2 195.82C534.13 195.816 534.06 195.809 533.99 195.799C532.35 195.569 531.21 194.052 531.44 192.411L532.69 183.498Z" fill="#1E3A8A"/>
</g>
<path d="M489 253.225C505.24 255.496 520.66 245.398 525.08 229.599L540.02 176.086C546.22 153.878 533.24 130.847 511.04 124.646C507.38 123.625 503.6 123.107 499.81 123.107H466.162C453.545 123.107 442.516 131.618 439.318 143.823L400.854 290.607H460.911L470.89 250.694L489 253.225ZM459.74 289.107H402.797L440.769 144.203C443.794 132.658 454.227 124.607 466.162 124.607H499.81C503.47 124.607 507.11 125.106 510.63 126.091C532.04 132.069 544.55 154.273 538.57 175.683L523.63 229.195C519.42 244.271 504.71 253.906 489.21 251.739L469.76 249.021L459.74 289.107Z" fill="#1E3A8A"/>
</g>
<mask id="mask2_165_221" style="mask-type:alpha" maskUnits="userSpaceOnUse" x="412" y="123" width="94" height="84">
<path d="M479.81 177.841L476.95 174.983C470.79 168.818 460.809 168.762 454.575 174.857C448.647 180.654 448.54 190.159 454.337 196.087C454.501 196.255 454.669 196.419 454.841 196.579L456.873 198.471C446.132 203.094 431.449 205.889 412.825 206.857L439.354 139.107C442.956 129.909 451.824 123.857 461.702 123.857H505.33C496.06 147.857 487.56 165.852 479.81 177.841Z" fill="white"/>
</mask>
<g mask="url(#mask2_165_221)">
<path d="M479.81 177.841L476.95 174.983C470.79 168.818 460.809 168.762 454.575 174.857C448.647 180.654 448.54 190.159 454.337 196.087C454.501 196.255 454.669 196.419 454.841 196.579L456.873 198.471C446.132 203.094 431.449 205.889 412.825 206.857L439.354 139.107C442.956 129.909 451.824 123.857 461.702 123.857H505.33C496.06 147.857 487.56 165.852 479.81 177.841Z" fill="#1E3A8A"/>
</g>
<path fill-rule="evenodd" clip-rule="evenodd" d="M465.825 103.357L491.83 82.3569L510.33 103.357" fill="white"/>
<path fill-rule="evenodd" clip-rule="evenodd" d="M441.825 103.357C441.825 103.357 447.325 110.191 458.325 123.857H514.83L534.83 103.357C472.83 103.357 441.825 103.357 441.825 103.357Z" fill="white"/>
<path d="M491.74 83.892L509.76 104.353L510.89 103.361L491.91 81.822L465.354 103.274L466.297 104.441L491.74 83.892Z" fill="#1E3A8A"/>
<path d="M441.241 104.328L457.741 124.828C457.884 125.005 458.099 125.107 458.326 125.107H514.83C515.03 125.107 515.22 125.026 515.36 124.881L535.36 104.381C535.83 103.906 535.49 103.107 534.83 103.107H441.826C441.196 103.107 440.846 103.837 441.241 104.328ZM533.05 104.607L514.51 123.607H458.685L443.392 104.607H533.05Z" fill="#1E3A8A"/>
<path fill-rule="evenodd" clip-rule="evenodd" d="M529.83 184.857L531.33 218.857L515.83 207.357" fill="white"/>
<path fill-rule="evenodd" clip-rule="evenodd" d="M406.325 266.857H443.43L444.43 290.444L457.93 266.857H470.33L462.325 290.857L398.825 290.357L406.325 266.857Z" fill="white"/>
<path d="M511.56 182.824L510.38 191.246C510.15 192.886 508.63 194.029 506.99 193.799C505.35 193.568 504.21 192.051 504.44 190.411L505.66 181.722L490.19 178.833C489.78 178.757 489.51 178.365 489.59 177.958C489.66 177.551 490.06 177.283 490.46 177.359L515.96 182.12C516.37 182.196 516.64 182.588 516.56 182.995C516.49 183.402 516.09 183.671 515.69 183.595L511.56 182.824ZM529.94 183.616L537.68 182.121C538.09 182.042 538.48 182.308 538.56 182.715C538.64 183.122 538.37 183.515 537.97 183.594L530.61 185.015L532.07 218.324C532.1 218.955 531.39 219.336 530.88 218.96L528.58 217.256L531.33 226.857C527.87 225.914 525.07 223.381 523.78 220.036L523.33 218.857C517.09 221.809 510.22 223.127 503.33 222.688L490.33 221.857L517.67 209.161L515.38 207.46C515.05 207.213 514.98 206.743 515.22 206.41C515.47 206.078 515.94 206.008 516.27 206.255L530.51 216.816L529.08 184.39C529.06 183.977 529.38 183.626 529.79 183.608C529.84 183.606 529.89 183.609 529.94 183.616Z" fill="#1E3A8A"/>
<path d="M444.793 291.469L434.35 328.846C434.239 329.245 433.825 329.478 433.426 329.367C433.027 329.255 432.794 328.842 432.906 328.443L443.239 291.457L398.819 291.107C398.314 291.103 397.957 290.611 398.111 290.129L405.611 266.629C405.71 266.318 405.999 266.107 406.325 266.107H443.43C443.832 266.107 444.163 266.424 444.18 266.826L445.07 287.817L457.28 266.485C457.413 266.251 457.661 266.107 457.93 266.107H470.33C470.84 266.107 471.2 266.609 471.04 267.095L463.037 291.095C462.934 291.403 462.644 291.61 462.319 291.607L444.793 291.469ZM399.849 289.615L443.659 289.96L442.712 267.607H406.873L399.849 289.615ZM461.786 290.103L469.28 267.607H458.365L445.563 289.975L461.786 290.103Z" fill="#1E3A8A"/>
<path fill-rule="evenodd" clip-rule="evenodd" d="M538.53 153.857H597.33C600.33 167.191 611.99 173.857 632.33 173.857C636.34 173.857 641.31 172.394 647.24 169.466L662.33 169.357V123.857H504.83C506.82 140.96 521.31 153.857 538.53 153.857Z" fill="white"/>
<path d="M632.22 174.607C636.33 174.607 641.36 173.138 647.31 170.214L662.97 170.102V123.107H503.88L503.98 123.944C506.01 141.425 520.82 154.607 538.42 154.607H596.63C599.92 167.948 611.87 174.607 632.22 174.607ZM661.47 124.607V168.613L646.96 168.717L646.8 168.793C640.97 171.674 636.1 173.107 632.22 173.107C612.2 173.107 600.86 166.628 597.95 153.693L597.82 153.107H538.42C521.87 153.107 507.89 140.914 505.57 124.607H661.47Z" fill="#1E3A8A"/>
<path d="M504.28 124.468C513.86 131.312 525.33 131.312 538.56 124.525L537.88 123.19C525.11 129.737 514.24 129.737 505.16 123.247L504.28 124.468Z" fill="#1E3A8A"/>
<path d="M685.83 121.857H661.83V212.857H685.83V121.857Z" fill="white"/>
<path d="M661.22 121.857H686.22V212.857H661.22V121.857ZM662.72 211.357H684.72V123.357H662.72V211.357Z" fill="#1E3A8A"/>
<path d="M673.72 202.607C677.17 202.607 679.97 199.809 679.97 196.357C679.97 192.906 677.17 190.107 673.72 190.107C670.27 190.107 667.47 192.906 667.47 196.357C667.47 199.809 670.27 202.607 673.72 202.607ZM673.72 201.107C671.1 201.107 668.97 198.981 668.97 196.357C668.97 193.734 671.1 191.607 673.72 191.607C676.34 191.607 678.47 193.734 678.47 196.357C678.47 198.981 676.34 201.107 673.72 201.107Z" fill="#1E3A8A"/>
<path d="M385.324 152.607L149.824 153.107L149.827 154.607L385.327 154.107L385.324 152.607Z" fill="#1E3A8A"/>
<path d="M385.325 206.357L321.22 207.357" stroke="#1E3A8A" stroke-width="1.5"/>
<path d="M364.575 827.61H343.075V865.86C343.075 866.27 342.739 866.61 342.325 866.61C341.911 866.61 341.575 866.27 341.575 865.86V827.61H321.825V826.11H385.825V827.61H366.075V865.86C366.075 866.27 365.739 866.61 365.325 866.61C364.911 866.61 364.575 866.27 364.575 865.86V827.61Z" fill="#1E3A8A"/>
<path d="M433.628 772.61H149.825C149.411 772.61 149.075 772.94 149.075 773.36C149.075 773.77 149.411 774.11 149.825 774.11H433.628C434.042 774.11 434.378 773.77 434.378 773.36C434.378 772.94 434.042 772.61 433.628 772.61Z" fill="#1E3A8A"/>
<path fill-rule="evenodd" clip-rule="evenodd" d="M266.825 138.857H274.825C279.243 138.857 282.825 142.439 282.825 146.857V204.857C282.825 211.485 277.453 216.857 270.825 216.857C264.198 216.857 258.825 211.485 258.825 204.857V146.857C258.825 142.439 262.407 138.857 266.825 138.857Z" fill="white"/>
<path fill-rule="evenodd" clip-rule="evenodd" d="M290.825 138.857H298.825C303.243 138.857 306.825 142.439 306.825 146.857V204.857C306.825 211.485 301.453 216.857 294.825 216.857C288.198 216.857 282.825 211.485 282.825 204.857V146.857C282.825 142.439 286.407 138.857 290.825 138.857Z" fill="white"/>
<path fill-rule="evenodd" clip-rule="evenodd" d="M314.825 138.857H322.825C327.243 138.857 330.825 142.439 330.825 146.857V204.857C330.825 211.485 325.453 216.857 318.825 216.857C312.198 216.857 306.825 211.485 306.825 204.857V146.857C306.825 142.439 310.407 138.857 314.825 138.857Z" fill="white"/>
<path d="M306.72 207.869C305.203 213.063 300.405 216.857 294.72 216.857C289.036 216.857 284.238 213.063 282.72 207.869C281.203 213.063 276.405 216.857 270.72 216.857C263.817 216.857 258.22 211.261 258.22 204.357V146.857C258.22 142.439 261.802 138.857 266.22 138.857H275.22C278.657 138.857 281.588 141.025 282.72 144.067C283.853 141.025 286.783 138.857 290.22 138.857H299.22C302.657 138.857 305.588 141.025 306.72 144.067C307.853 141.025 310.783 138.857 314.22 138.857H323.22C327.638 138.857 331.22 142.439 331.22 146.857V204.357C331.22 211.261 325.624 216.857 318.72 216.857C313.036 216.857 308.238 213.063 306.72 207.869ZM266.22 140.357C262.63 140.357 259.72 143.268 259.72 146.857V204.357C259.72 210.433 264.645 215.357 270.72 215.357C276.795 215.357 281.72 210.433 281.72 204.357V146.857C281.72 143.268 278.81 140.357 275.22 140.357H266.22ZM290.22 140.357C286.63 140.357 283.72 143.268 283.72 146.857V204.357C283.72 210.433 288.645 215.357 294.72 215.357C300.795 215.357 305.72 210.433 305.72 204.357V146.857C305.72 143.268 302.81 140.357 299.22 140.357H290.22ZM314.22 140.357C310.63 140.357 307.72 143.268 307.72 146.857V204.357C307.72 210.433 312.645 215.357 318.72 215.357C324.795 215.357 329.72 210.433 329.72 204.357V146.857C329.72 143.268 326.81 140.357 323.22 140.357H314.22Z" fill="#1E3A8A"/>
<path d="M260.868 140.695L237.368 153.195L238.073 154.52L261.573 142.02L260.868 140.695Z" fill="#1E3A8A"/>
<path fill-rule="evenodd" clip-rule="evenodd" d="M194.644 326.98C197.513 325.323 201.183 326.306 202.84 329.176L231.34 378.539C232.997 381.409 232.013 385.079 229.144 386.735C226.274 388.392 222.604 387.409 220.947 384.539L192.447 335.176C190.791 332.306 191.774 328.637 194.644 326.98ZM194.644 541.101C192.252 539.721 191.433 536.663 192.813 534.271L222.313 483.176C223.694 480.784 226.752 479.965 229.144 481.346C231.535 482.726 232.354 485.784 230.974 488.176L201.474 539.271C200.093 541.663 197.035 542.482 194.644 541.101ZM387.962 327.096C390.592 328.614 391.494 331.978 389.975 334.609L361.975 383.106C360.456 385.737 357.092 386.638 354.462 385.119C351.831 383.601 350.93 380.237 352.449 377.606L380.449 329.109C381.967 326.478 385.331 325.577 387.962 327.096ZM387.895 539.869C385.025 541.526 381.355 540.543 379.699 537.673L351.699 489.176C350.042 486.306 351.025 482.637 353.895 480.98C356.764 479.323 360.434 480.306 362.091 483.176L390.091 531.673C391.748 534.543 390.764 538.213 387.895 539.869Z" fill="white"/>
<path d="M194.825 326.547C197.934 324.752 201.91 325.817 203.704 328.926L232.204 378.289C233.999 381.398 232.934 385.374 229.825 387.168C226.716 388.963 222.741 387.898 220.946 384.789L192.446 335.426C190.651 332.317 191.716 328.342 194.825 326.547ZM193.745 334.676L222.245 384.039C223.626 386.431 226.684 387.25 229.075 385.869C231.467 384.489 232.286 381.431 230.905 379.039L202.405 329.676C201.025 327.284 197.967 326.465 195.575 327.846C193.184 329.226 192.364 332.284 193.745 334.676ZM194.825 541.168C191.716 539.374 190.651 535.398 192.446 532.289L220.946 482.926C222.741 479.817 226.716 478.752 229.825 480.547C232.934 482.342 233.999 486.317 232.204 489.426L203.704 538.789C201.91 541.898 197.934 542.963 194.825 541.168ZM195.575 539.869C197.967 541.25 201.025 540.431 202.405 538.039L230.905 488.676C232.286 486.284 231.467 483.226 229.075 481.846C226.684 480.465 223.626 481.284 222.245 483.676L193.745 533.039C192.364 535.431 193.184 538.489 195.575 539.869ZM389.076 326.547C392.185 328.342 393.25 332.317 391.456 335.426L362.956 384.789C361.161 387.898 357.185 388.963 354.076 387.168C350.967 385.374 349.902 381.398 351.697 378.289L380.197 328.926C381.992 325.817 385.967 324.752 389.076 326.547ZM381.496 329.676L352.996 379.039C351.616 381.431 352.435 384.489 354.826 385.869C357.218 387.25 360.276 386.431 361.656 384.039L390.156 334.676C391.537 332.284 390.718 329.226 388.326 327.846C385.935 326.465 382.877 327.284 381.496 329.676ZM389.076 541.168C385.967 542.963 381.992 541.898 380.197 538.789L351.697 489.426C349.902 486.317 350.967 482.342 354.076 480.547C357.185 478.752 361.161 479.817 362.956 482.926L391.456 532.289C393.25 535.398 392.185 539.374 389.076 541.168ZM388.326 539.869C390.718 538.489 391.537 535.431 390.156 533.039L361.656 483.676C360.276 481.284 357.218 480.465 354.826 481.846C352.435 483.226 351.616 486.284 352.996 488.676L381.496 538.039C382.877 540.431 385.935 541.25 388.326 539.869Z" fill="#1E3A8A"/>
<path d="M261.842 203.901C261.541 204.186 261.067 204.174 260.781 203.874C260.496 203.574 260.508 203.099 260.809 202.814C267.775 196.195 274.274 196.195 279.899 202.874C280.166 203.191 280.125 203.664 279.808 203.931C279.491 204.198 279.018 204.157 278.752 203.841C273.709 197.853 268.208 197.853 261.842 203.901ZM286.342 203.901C286.041 204.186 285.567 204.174 285.281 203.874C284.996 203.574 285.008 203.099 285.309 202.814C292.275 196.195 298.774 196.195 304.399 202.874C304.666 203.191 304.625 203.664 304.308 203.931C303.991 204.198 303.518 204.157 303.252 203.841C298.209 197.853 292.708 197.853 286.342 203.901ZM310.342 203.901C310.041 204.186 309.567 204.174 309.281 203.874C308.996 203.574 309.008 203.099 309.309 202.814C316.275 196.195 322.774 196.195 328.399 202.874C328.666 203.191 328.625 203.664 328.308 203.931C327.991 204.198 327.518 204.157 327.252 203.841C322.209 197.853 316.708 197.853 310.342 203.901Z" fill="#1E3A8A"/>
<path d="M320.325 622.357L320.773 688.857" stroke="#1E3A8A" stroke-width="1.5" stroke-linejoin="round"/>
<path d="M320.47 1.35298L321.97 1.36198L321.575 66.362L320.075 66.353L320.47 1.35298ZM341.575 0.107982C341.575 -0.307018 341.911 0.607982 342.325 0.607982C342.739 0.607982 343.075 0.942982 343.075 1.35798L342.825 153.358C342.825 153.772 342.739 153.858 342.325 153.858C341.911 153.858 341.325 153.772 341.325 153.358L341.575 0.107982ZM365.075 1.35798C365.075 0.942982 365.411 0.607982 365.825 0.607982C366.239 0.607982 366.575 0.942982 366.575 1.35798L366.325 153.358C366.325 153.772 365.989 154.108 365.575 154.108C365.161 154.108 364.825 153.772 364.825 153.358L365.075 1.35798Z" fill="#1E3A8A"/>
</svg>
