<svg width="104" height="16" viewBox="0 0 104 16" fill="none" xmlns="http://www.w3.org/2000/svg">
<path d="M13.76 11.78C13.44 12.2867 13.06 12.7467 12.62 13.16C12.1933 13.5733 11.72 13.9333 11.2 14.24C10.68 14.5333 10.12 14.76 9.52 14.92C8.92 15.08 8.3 15.16 7.66 15.16C6.67333 15.16 5.74 14.9733 4.86 14.6C3.99333 14.2267 3.23333 13.72 2.58 13.08C1.94 12.4267 1.43333 11.6667 1.06 10.8C0.686667 9.92 0.5 8.98667 0.5 8C0.5 7.01333 0.686667 6.08667 1.06 5.22C1.43333 4.34 1.94 3.58 2.58 2.94C3.23333 2.28667 3.99333 1.77333 4.86 1.4C5.74 1.02667 6.67333 0.84 7.66 0.84C8.3 0.84 8.92 0.92 9.52 1.08C10.12 1.24 10.68 1.47333 11.2 1.78C11.72 2.07333 12.1933 2.42667 12.62 2.84C13.06 3.25333 13.44 3.71333 13.76 4.22L11.42 5.72C11.0467 5 10.5333 4.42667 9.88 4C9.22667 3.56 8.48667 3.34 7.66 3.34C7.07333 3.34 6.52 3.46667 6 3.72C5.48 3.96 5.02667 4.29333 4.64 4.72C4.25333 5.13333 3.94667 5.62667 3.72 6.2C3.49333 6.76 3.38 7.36 3.38 8C3.38 8.64 3.49333 9.24667 3.72 9.82C3.94667 10.38 4.25333 10.8733 4.64 11.3C5.02667 11.7133 5.48 12.0467 6 12.3C6.52 12.54 7.07333 12.66 7.66 12.66C8.48667 12.66 9.22667 12.4467 9.88 12.02C10.5333 11.58 11.0467 11 11.42 10.28L13.76 11.78ZM22.6778 9.42H19.5578L18.2578 6.8H22.6778V9.42ZM24.3378 0.999999L24.3578 3.34H17.7778L17.7578 12.68H24.3378V15H14.9578V0.999999H24.3378ZM37.3391 15H33.7791L31.6391 12.36L33.9791 10.84L37.3391 15ZM34.1591 10.4C33.8391 10.5467 33.5391 10.6533 33.2591 10.72C32.9924 10.7867 32.6591 10.8333 32.2591 10.86C31.8724 10.8733 31.3857 10.88 30.7991 10.88C30.2257 10.8667 29.4791 10.86 28.5591 10.86V15H25.7391V0.999999H32.0791C32.7591 0.999999 33.3924 1.13333 33.9791 1.4C34.5791 1.65333 35.0991 2.00667 35.5391 2.46C35.9924 2.9 36.3457 3.42667 36.5991 4.04C36.8657 4.64 36.9991 5.28 36.9991 5.96C36.9991 6.96 36.7324 7.85333 36.1991 8.64C35.6791 9.42667 34.9991 10.0133 34.1591 10.4ZM28.5591 8.06H32.0791C32.6791 8.06 33.1857 7.85333 33.5991 7.44C34.0124 7.01333 34.2191 6.44667 34.2191 5.74C34.2191 5.44667 34.1591 5.16667 34.0391 4.9C33.9324 4.62 33.7791 4.37333 33.5791 4.16C33.3924 3.94667 33.1657 3.78 32.8991 3.66C32.6457 3.52667 32.3724 3.46 32.0791 3.46H28.5591V8V8.02V8.06ZM44.1016 0.999999V15H41.2216V3.44H37.1016V0.999999H44.1016ZM44.5216 0.999999H48.2216V3.44H45.7416L44.5216 0.999999ZM49.4305 0.999999H52.3505V15H49.4305V0.999999Z" fill="#1E3A8A"/>
<path d="M58.3669 9.38L57.0669 6.78H61.5069V9.38H58.3669ZM53.7469 0.979999H63.2069V3.34H56.5669V15H53.7469V0.979999ZM66.8384 9.22C66.8384 9.7 66.9184 10.1533 67.0784 10.58C67.2518 10.9933 67.4851 11.36 67.7784 11.68C68.0718 11.9867 68.4118 12.2333 68.7984 12.42C69.1984 12.6067 69.6184 12.7 70.0584 12.7V15.16C69.2184 15.16 68.4318 15.0067 67.6984 14.7C66.9651 14.38 66.3184 13.9467 65.7584 13.4C65.2118 12.8533 64.7784 12.2133 64.4584 11.48C64.1518 10.7467 63.9984 9.96 63.9984 9.12V0.999999H66.8384V9.12V9.16V9.22ZM76.0784 0.999999V9.12C76.0784 9.82667 75.9584 10.5 75.7184 11.14C75.4918 11.7667 75.1718 12.34 74.7584 12.86C74.3584 13.3667 73.8784 13.8067 73.3184 14.18C72.7584 14.54 72.1518 14.8067 71.4984 14.98L70.2584 12.68C70.6718 12.6533 71.0584 12.5467 71.4184 12.36C71.7784 12.16 72.0918 11.9067 72.3584 11.6C72.6384 11.28 72.8518 10.92 72.9984 10.52C73.1584 10.1067 73.2384 9.67333 73.2384 9.22C73.2384 9.20667 73.2318 9.2 73.2184 9.2C73.2184 9.18667 73.2184 9.17333 73.2184 9.16C73.2184 9.12 73.2184 9.11333 73.2184 9.14C73.2318 9.16667 73.2384 9.14667 73.2384 9.08C73.2384 9 73.2384 8.84 73.2384 8.6C73.2384 8.34667 73.2384 7.92667 73.2384 7.34C73.2384 6.74 73.2384 5.93333 73.2384 4.92C73.2384 3.90667 73.2384 2.6 73.2384 0.999999H76.0784ZM80.2997 0.999999L89.3197 14V15H86.3997L80.2997 6.2V15H77.3797V0.999999H80.2997ZM86.3997 0.999999H89.3197V11.48L86.3997 9.38V0.999999ZM96.7195 0.999999C97.6795 0.999999 98.5862 1.18667 99.4395 1.56C100.293 1.92 101.033 2.42 101.66 3.06C102.3 3.68667 102.8 4.42667 103.16 5.28C103.533 6.13333 103.72 7.04 103.72 8C103.72 8.96 103.533 9.86667 103.16 10.72C102.8 11.5733 102.3 12.32 101.66 12.96C101.033 13.5867 100.293 14.0867 99.4395 14.46C98.5862 14.82 97.6795 15 96.7195 15H95.5595L94.2395 12.56H96.7195C97.2929 12.56 97.8329 12.4467 98.3395 12.22C98.8595 11.9933 99.3062 11.68 99.6795 11.28C100.066 10.8667 100.366 10.38 100.58 9.82C100.806 9.26 100.92 8.65333 100.92 8C100.92 7.36 100.806 6.76 100.58 6.2C100.366 5.64 100.066 5.16 99.6795 4.76C99.3062 4.34667 98.8595 4.02667 98.3395 3.8C97.8329 3.56 97.2929 3.44 96.7195 3.44H93.5195V15H90.7195V0.999999H96.7195Z" fill="white"/>
</svg>
