<svg width="124" height="88" viewBox="0 0 124 88" fill="none" xmlns="http://www.w3.org/2000/svg">
<path d="M0.0705453 0H123.571V46H0.0705453V0Z" fill="#1E3A8A"/>
<path d="M32.8528 31.755C32.1328 32.895 31.2778 33.93 30.2878 34.86C29.3278 35.79 28.2628 36.6 27.0928 37.29C25.9228 37.95 24.6628 38.46 23.3128 38.82C21.9628 39.18 20.5678 39.36 19.1278 39.36C16.9078 39.36 14.8078 38.94 12.8278 38.1C10.8778 37.26 9.16781 36.12 7.69781 34.68C6.25781 33.21 5.11781 31.5 4.27781 29.55C3.43781 27.57 3.01781 25.47 3.01781 23.25C3.01781 21.03 3.43781 18.945 4.27781 16.995C5.11781 15.015 6.25781 13.305 7.69781 11.865C9.16781 10.395 10.8778 9.24 12.8278 8.4C14.8078 7.56 16.9078 7.14 19.1278 7.14C20.5678 7.14 21.9628 7.32 23.3128 7.68C24.6628 8.04 25.9228 8.565 27.0928 9.255C28.2628 9.915 29.3278 10.71 30.2878 11.64C31.2778 12.57 32.1328 13.605 32.8528 14.745L27.5878 18.12C26.7478 16.5 25.5928 15.21 24.1228 14.25C22.6528 13.26 20.9878 12.765 19.1278 12.765C17.8078 12.765 16.5628 13.05 15.3928 13.62C14.2228 14.16 13.2028 14.91 12.3328 15.87C11.4628 16.8 10.7728 17.91 10.2628 19.2C9.75281 20.46 9.49781 21.81 9.49781 23.25C9.49781 24.69 9.75281 26.055 10.2628 27.345C10.7728 28.605 11.4628 29.715 12.3328 30.675C13.2028 31.605 14.2228 32.355 15.3928 32.925C16.5628 33.465 17.8078 33.735 19.1278 33.735C20.9878 33.735 22.6528 33.255 24.1228 32.295C25.5928 31.305 26.7478 30 27.5878 28.38L32.8528 31.755Z" fill="white"/>
<path d="M52.9179 26.445H45.8979L42.9729 20.55H52.9179V26.445ZM56.6529 7.5L56.6979 12.765H41.8929L41.8479 33.78H56.6529V39H35.5479V7.5H56.6529Z" fill="white"/>
<path d="M85.9057 39H77.8957L73.0807 33.06L78.3457 29.64L85.9057 39ZM78.7507 28.65C78.0307 28.98 77.3557 29.22 76.7257 29.37C76.1257 29.52 75.3757 29.625 74.4757 29.685C73.6057 29.715 72.5107 29.73 71.1907 29.73C69.9007 29.7 68.2207 29.685 66.1507 29.685V39H59.8057V7.5H74.0707C75.6007 7.5 77.0257 7.8 78.3457 8.4C79.6957 8.97 80.8657 9.765 81.8557 10.785C82.8757 11.775 83.6707 12.96 84.2407 14.34C84.8407 15.69 85.1407 17.13 85.1407 18.66C85.1407 20.91 84.5407 22.92 83.3407 24.69C82.1707 26.46 80.6407 27.78 78.7507 28.65ZM66.1507 23.385H74.0707C75.4207 23.385 76.5607 22.92 77.4907 21.99C78.4207 21.03 78.8857 19.755 78.8857 18.165C78.8857 17.505 78.7507 16.875 78.4807 16.275C78.2407 15.645 77.8957 15.09 77.4457 14.61C77.0257 14.13 76.5157 13.755 75.9157 13.485C75.3457 13.185 74.7307 13.035 74.0707 13.035H66.1507V23.385Z" fill="white"/>
<path d="M101.121 7.5V39H94.6413V12.99H85.3713V7.5H101.121ZM102.066 7.5H110.391V12.99H104.811L102.066 7.5Z" fill="white"/>
<path d="M113.111 7.5H119.681V39H113.111V7.5Z" fill="white"/>
<path d="M11.319 73.231L8.134 66.861H19.012V73.231H11.319ZM0 52.651H23.177V58.433H6.909V87H0V52.651Z" fill="#1F2937"/>
<path d="M32.4743 72.839C32.4743 74.015 32.6703 75.1257 33.0623 76.171C33.487 77.1837 34.0587 78.082 34.7773 78.866C35.496 79.6173 36.329 80.2217 37.2763 80.679C38.2563 81.1363 39.2853 81.365 40.3633 81.365V87.392C38.3053 87.392 36.378 87.0163 34.5813 86.265C32.7847 85.481 31.2003 84.4193 29.8283 83.08C28.489 81.7407 27.4273 80.1727 26.6433 78.376C25.892 76.5793 25.5163 74.652 25.5163 72.594V52.7H32.4743V72.839ZM55.1123 52.7V72.594C55.1123 74.3253 54.8183 75.975 54.2303 77.543C53.675 79.0783 52.891 80.483 51.8783 81.757C50.8983 82.9983 49.7223 84.0763 48.3503 84.991C46.9783 85.873 45.492 86.5263 43.8913 86.951L40.8533 81.316C41.866 81.2507 42.8133 80.9893 43.6953 80.532C44.5773 80.042 45.345 79.4213 45.9983 78.67C46.6843 77.886 47.207 77.004 47.5663 76.024C47.9583 75.0113 48.1543 73.9497 48.1543 72.839C48.1543 72.8063 48.138 72.79 48.1053 72.79C48.1053 72.7573 48.1053 72.7247 48.1053 72.692C48.1053 72.594 48.1053 72.5777 48.1053 72.643C48.138 72.7083 48.1543 72.6593 48.1543 72.496C48.1543 72.3 48.1543 71.908 48.1543 71.32C48.1543 70.6993 48.1543 69.6703 48.1543 68.233C48.1543 66.763 48.1543 64.7867 48.1543 62.304C48.1543 59.8213 48.1543 56.62 48.1543 52.7H55.1123Z" fill="#1F2937"/>
<path d="M65.8544 52.7L87.9534 84.55V87H80.7994L65.8544 65.44V87H58.7004V52.7H65.8544ZM80.7994 52.7H87.9534V78.376L80.7994 73.231V52.7Z" fill="#1F2937"/>
<path d="M106.483 52.7C108.835 52.7 111.056 53.1573 113.147 54.072C115.238 54.954 117.051 56.179 118.586 57.747C120.154 59.2823 121.379 61.0953 122.261 63.186C123.176 65.2767 123.633 67.498 123.633 69.85C123.633 72.202 123.176 74.4233 122.261 76.514C121.379 78.6047 120.154 80.434 118.586 82.002C117.051 83.5373 115.238 84.7623 113.147 85.677C111.056 86.559 108.835 87 106.483 87H103.641L100.407 81.022H106.483C107.888 81.022 109.211 80.7443 110.452 80.189C111.726 79.6337 112.82 78.866 113.735 77.886C114.682 76.8733 115.417 75.681 115.94 74.309C116.495 72.937 116.773 71.4507 116.773 69.85C116.773 68.282 116.495 66.812 115.94 65.44C115.417 64.068 114.682 62.892 113.735 61.912C112.82 60.8993 111.726 60.1153 110.452 59.56C109.211 58.972 107.888 58.678 106.483 58.678H98.643V87H91.783V52.7H106.483Z" fill="#1F2937"/>
</svg>
